<mxfile host="app.diagrams.net" agent="Mozilla/5.0 (Windows NT 10.0; Win64; x64) AppleWebKit/537.36 (KHTML, like Gecko) Chrome/133.0.0.0 Safari/537.36 Edg/133.0.0.0" version="26.0.4">
  <diagram name="第 1 页" id="zOTyfkO28Ilmd_IALhG7">
    <mxGraphModel dx="1011" dy="1769" grid="1" gridSize="10" guides="1" tooltips="1" connect="1" arrows="1" fold="1" page="1" pageScale="1" pageWidth="850" pageHeight="1100" math="0" shadow="0">
      <root>
        <mxCell id="0" />
        <mxCell id="1" parent="0" />
        <mxCell id="OAMfP3uRhHY4c8-LjVHL-136" value="" style="group;verticalAlign=bottom;horizontal=1;" vertex="1" connectable="0" parent="1">
          <mxGeometry x="160" y="280" width="410" height="370" as="geometry" />
        </mxCell>
        <mxCell id="OAMfP3uRhHY4c8-LjVHL-1" value="" style="rounded=0;whiteSpace=wrap;html=1;points=[[0,0,0,0,0],[0,0.25,0,0,0],[0,0.5,0,0,0],[0,0.75,0,0,0],[0,1,0,0,0],[0.06,0,0,0,0],[0.06,1,0,0,0],[0.12,0,0,0,0],[0.12,1,0,0,0],[0.18,0,0,0,0],[0.18,1,0,0,0],[0.24,0,0,0,0],[0.24,1,0,0,0],[0.29,0,0,0,0],[0.29,1,0,0,0],[0.35,0,0,0,0],[0.35,1,0,0,0],[0.41,0,0,0,0],[0.41,1,0,0,0],[0.47,0,0,0,0],[0.47,1,0,0,0],[0.53,0,0,0,0],[0.53,1,0,0,0],[0.59,0,0,0,0],[0.59,1,0,0,0],[0.65,0,0,0,0],[0.65,1,0,0,0],[0.71,0,0,0,0],[0.71,1,0,0,0],[0.76,0,0,0,0],[0.76,1,0,0,0],[0.82,0,0,0,0],[0.82,1,0,0,0],[0.88,0,0,0,0],[0.88,1,0,0,0],[0.94,0,0,0,0],[0.94,1,0,0,0],[1,0,0,0,0],[1,0.25,0,0,0],[1,0.5,0,0,0],[1,0.75,0,0,0],[1,1,0,0,0]];" vertex="1" parent="OAMfP3uRhHY4c8-LjVHL-136">
          <mxGeometry width="170" height="50" as="geometry" />
        </mxCell>
        <mxCell id="OAMfP3uRhHY4c8-LjVHL-8" value="" style="rounded=0;whiteSpace=wrap;html=1;points=[[0,0,0,0,0],[0,0.25,0,0,0],[0,0.5,0,0,0],[0,0.75,0,0,0],[0,1,0,0,0],[0.06,0,0,0,0],[0.06,1,0,0,0],[0.12,0,0,0,0],[0.12,1,0,0,0],[0.18,0,0,0,0],[0.18,1,0,0,0],[0.24,0,0,0,0],[0.24,1,0,0,0],[0.29,0,0,0,0],[0.29,1,0,0,0],[0.35,0,0,0,0],[0.35,1,0,0,0],[0.41,0,0,0,0],[0.41,1,0,0,0],[0.47,0,0,0,0],[0.47,1,0,0,0],[0.53,0,0,0,0],[0.53,1,0,0,0],[0.59,0,0,0,0],[0.59,1,0,0,0],[0.65,0,0,0,0],[0.65,1,0,0,0],[0.71,0,0,0,0],[0.71,1,0,0,0],[0.76,0,0,0,0],[0.76,1,0,0,0],[0.82,0,0,0,0],[0.82,1,0,0,0],[0.88,0,0,0,0],[0.88,1,0,0,0],[0.94,0,0,0,0],[0.94,1,0,0,0],[1,0,0,0,0],[1,0.25,0,0,0],[1,0.5,0,0,0],[1,0.75,0,0,0],[1,1,0,0,0]];" vertex="1" parent="OAMfP3uRhHY4c8-LjVHL-136">
          <mxGeometry x="240" width="170" height="50" as="geometry" />
        </mxCell>
        <mxCell id="OAMfP3uRhHY4c8-LjVHL-9" value="" style="rounded=0;whiteSpace=wrap;html=1;points=[[0,0,0,0,0],[0,0.25,0,0,0],[0,0.5,0,0,0],[0,0.75,0,0,0],[0,1,0,0,0],[0.06,0,0,0,0],[0.06,1,0,0,0],[0.12,0,0,0,0],[0.12,1,0,0,0],[0.18,0,0,0,0],[0.18,1,0,0,0],[0.24,0,0,0,0],[0.24,1,0,0,0],[0.29,0,0,0,0],[0.29,1,0,0,0],[0.35,0,0,0,0],[0.35,1,0,0,0],[0.41,0,0,0,0],[0.41,1,0,0,0],[0.47,0,0,0,0],[0.47,1,0,0,0],[0.53,0,0,0,0],[0.53,1,0,0,0],[0.59,0,0,0,0],[0.59,1,0,0,0],[0.65,0,0,0,0],[0.65,1,0,0,0],[0.71,0,0,0,0],[0.71,1,0,0,0],[0.76,0,0,0,0],[0.76,1,0,0,0],[0.82,0,0,0,0],[0.82,1,0,0,0],[0.88,0,0,0,0],[0.88,1,0,0,0],[0.94,0,0,0,0],[0.94,1,0,0,0],[1,0,0,0,0],[1,0.25,0,0,0],[1,0.5,0,0,0],[1,0.75,0,0,0],[1,1,0,0,0]];" vertex="1" parent="OAMfP3uRhHY4c8-LjVHL-136">
          <mxGeometry y="160" width="170" height="50" as="geometry" />
        </mxCell>
        <mxCell id="OAMfP3uRhHY4c8-LjVHL-12" value="" style="rounded=0;whiteSpace=wrap;html=1;points=[[0,0,0,0,0],[0,0.25,0,0,0],[0,0.5,0,0,0],[0,0.75,0,0,0],[0,1,0,0,0],[0.06,0,0,0,0],[0.06,1,0,0,0],[0.12,0,0,0,0],[0.12,1,0,0,0],[0.18,0,0,0,0],[0.18,1,0,0,0],[0.24,0,0,0,0],[0.24,1,0,0,0],[0.29,0,0,0,0],[0.29,1,0,0,0],[0.35,0,0,0,0],[0.35,1,0,0,0],[0.41,0,0,0,0],[0.41,1,0,0,0],[0.47,0,0,0,0],[0.47,1,0,0,0],[0.53,0,0,0,0],[0.53,1,0,0,0],[0.59,0,0,0,0],[0.59,1,0,0,0],[0.65,0,0,0,0],[0.65,1,0,0,0],[0.71,0,0,0,0],[0.71,1,0,0,0],[0.76,0,0,0,0],[0.76,1,0,0,0],[0.82,0,0,0,0],[0.82,1,0,0,0],[0.88,0,0,0,0],[0.88,1,0,0,0],[0.94,0,0,0,0],[0.94,1,0,0,0],[1,0,0,0,0],[1,0.25,0,0,0],[1,0.5,0,0,0],[1,0.75,0,0,0],[1,1,0,0,0]];" vertex="1" parent="OAMfP3uRhHY4c8-LjVHL-136">
          <mxGeometry x="240" y="160" width="170" height="50" as="geometry" />
        </mxCell>
        <mxCell id="OAMfP3uRhHY4c8-LjVHL-13" value="" style="rounded=0;whiteSpace=wrap;html=1;points=[[0,0,0,0,0],[0,0.25,0,0,0],[0,0.5,0,0,0],[0,0.75,0,0,0],[0,1,0,0,0],[0.06,0,0,0,0],[0.06,1,0,0,0],[0.12,0,0,0,0],[0.12,1,0,0,0],[0.18,0,0,0,0],[0.18,1,0,0,0],[0.24,0,0,0,0],[0.24,1,0,0,0],[0.29,0,0,0,0],[0.29,1,0,0,0],[0.35,0,0,0,0],[0.35,1,0,0,0],[0.41,0,0,0,0],[0.41,1,0,0,0],[0.47,0,0,0,0],[0.47,1,0,0,0],[0.53,0,0,0,0],[0.53,1,0,0,0],[0.59,0,0,0,0],[0.59,1,0,0,0],[0.65,0,0,0,0],[0.65,1,0,0,0],[0.71,0,0,0,0],[0.71,1,0,0,0],[0.76,0,0,0,0],[0.76,1,0,0,0],[0.82,0,0,0,0],[0.82,1,0,0,0],[0.88,0,0,0,0],[0.88,1,0,0,0],[0.94,0,0,0,0],[0.94,1,0,0,0],[1,0,0,0,0],[1,0.25,0,0,0],[1,0.5,0,0,0],[1,0.75,0,0,0],[1,1,0,0,0]];" vertex="1" parent="OAMfP3uRhHY4c8-LjVHL-136">
          <mxGeometry y="320" width="170" height="50" as="geometry" />
        </mxCell>
        <mxCell id="OAMfP3uRhHY4c8-LjVHL-14" value="" style="rounded=0;whiteSpace=wrap;html=1;points=[[0,0,0,0,0],[0,0.25,0,0,0],[0,0.5,0,0,0],[0,0.75,0,0,0],[0,1,0,0,0],[0.06,0,0,0,0],[0.06,1,0,0,0],[0.12,0,0,0,0],[0.12,1,0,0,0],[0.18,0,0,0,0],[0.18,1,0,0,0],[0.24,0,0,0,0],[0.24,1,0,0,0],[0.29,0,0,0,0],[0.29,1,0,0,0],[0.35,0,0,0,0],[0.35,1,0,0,0],[0.41,0,0,0,0],[0.41,1,0,0,0],[0.47,0,0,0,0],[0.47,1,0,0,0],[0.53,0,0,0,0],[0.53,1,0,0,0],[0.59,0,0,0,0],[0.59,1,0,0,0],[0.65,0,0,0,0],[0.65,1,0,0,0],[0.71,0,0,0,0],[0.71,1,0,0,0],[0.76,0,0,0,0],[0.76,1,0,0,0],[0.82,0,0,0,0],[0.82,1,0,0,0],[0.88,0,0,0,0],[0.88,1,0,0,0],[0.94,0,0,0,0],[0.94,1,0,0,0],[1,0,0,0,0],[1,0.25,0,0,0],[1,0.5,0,0,0],[1,0.75,0,0,0],[1,1,0,0,0]];" vertex="1" parent="OAMfP3uRhHY4c8-LjVHL-136">
          <mxGeometry x="240" y="320" width="170" height="50" as="geometry" />
        </mxCell>
        <mxCell id="OAMfP3uRhHY4c8-LjVHL-15" style="edgeStyle=orthogonalEdgeStyle;rounded=0;orthogonalLoop=1;jettySize=auto;html=1;exitX=0.06;exitY=0;exitDx=0;exitDy=0;exitPerimeter=0;entryX=0.06;entryY=1;entryDx=0;entryDy=0;entryPerimeter=0;endArrow=openThin;endFill=0;strokeColor=default;align=center;verticalAlign=middle;fontFamily=Helvetica;fontSize=11;fontColor=default;labelBackgroundColor=default;" edge="1" parent="OAMfP3uRhHY4c8-LjVHL-136" source="OAMfP3uRhHY4c8-LjVHL-9" target="OAMfP3uRhHY4c8-LjVHL-1">
          <mxGeometry relative="1" as="geometry" />
        </mxCell>
        <mxCell id="OAMfP3uRhHY4c8-LjVHL-16" style="edgeStyle=orthogonalEdgeStyle;rounded=0;orthogonalLoop=1;jettySize=auto;html=1;exitX=0.12;exitY=0;exitDx=0;exitDy=0;exitPerimeter=0;entryX=0.12;entryY=1;entryDx=0;entryDy=0;entryPerimeter=0;endArrow=openThin;endFill=0;strokeColor=default;align=center;verticalAlign=middle;fontFamily=Helvetica;fontSize=11;fontColor=default;labelBackgroundColor=default;" edge="1" parent="OAMfP3uRhHY4c8-LjVHL-136" source="OAMfP3uRhHY4c8-LjVHL-9" target="OAMfP3uRhHY4c8-LjVHL-1">
          <mxGeometry relative="1" as="geometry" />
        </mxCell>
        <mxCell id="OAMfP3uRhHY4c8-LjVHL-17" style="edgeStyle=orthogonalEdgeStyle;rounded=0;orthogonalLoop=1;jettySize=auto;html=1;exitX=0.18;exitY=0;exitDx=0;exitDy=0;exitPerimeter=0;entryX=0.18;entryY=1;entryDx=0;entryDy=0;entryPerimeter=0;endArrow=openThin;endFill=0;" edge="1" parent="OAMfP3uRhHY4c8-LjVHL-136" source="OAMfP3uRhHY4c8-LjVHL-9" target="OAMfP3uRhHY4c8-LjVHL-1">
          <mxGeometry relative="1" as="geometry" />
        </mxCell>
        <mxCell id="OAMfP3uRhHY4c8-LjVHL-18" style="edgeStyle=orthogonalEdgeStyle;rounded=0;orthogonalLoop=1;jettySize=auto;html=1;exitX=0.24;exitY=0;exitDx=0;exitDy=0;exitPerimeter=0;entryX=0.24;entryY=1;entryDx=0;entryDy=0;entryPerimeter=0;strokeColor=default;align=center;verticalAlign=middle;fontFamily=Helvetica;fontSize=11;fontColor=default;labelBackgroundColor=default;endArrow=openThin;endFill=0;" edge="1" parent="OAMfP3uRhHY4c8-LjVHL-136" source="OAMfP3uRhHY4c8-LjVHL-9" target="OAMfP3uRhHY4c8-LjVHL-1">
          <mxGeometry relative="1" as="geometry" />
        </mxCell>
        <mxCell id="OAMfP3uRhHY4c8-LjVHL-25" style="shape=connector;rounded=0;orthogonalLoop=1;jettySize=auto;html=1;exitX=0.53;exitY=1;exitDx=0;exitDy=0;exitPerimeter=0;entryX=0.53;entryY=0;entryDx=0;entryDy=0;entryPerimeter=0;strokeColor=default;align=center;verticalAlign=middle;fontFamily=Helvetica;fontSize=11;fontColor=default;labelBackgroundColor=default;endArrow=openThin;endFill=0;" edge="1" parent="OAMfP3uRhHY4c8-LjVHL-136" source="OAMfP3uRhHY4c8-LjVHL-1" target="OAMfP3uRhHY4c8-LjVHL-9">
          <mxGeometry relative="1" as="geometry" />
        </mxCell>
        <mxCell id="OAMfP3uRhHY4c8-LjVHL-26" style="edgeStyle=orthogonalEdgeStyle;shape=connector;rounded=0;orthogonalLoop=1;jettySize=auto;html=1;exitX=0.59;exitY=1;exitDx=0;exitDy=0;exitPerimeter=0;entryX=0.59;entryY=0;entryDx=0;entryDy=0;entryPerimeter=0;strokeColor=default;align=center;verticalAlign=middle;fontFamily=Helvetica;fontSize=11;fontColor=default;labelBackgroundColor=default;endArrow=openThin;endFill=0;" edge="1" parent="OAMfP3uRhHY4c8-LjVHL-136" source="OAMfP3uRhHY4c8-LjVHL-1" target="OAMfP3uRhHY4c8-LjVHL-9">
          <mxGeometry relative="1" as="geometry" />
        </mxCell>
        <mxCell id="OAMfP3uRhHY4c8-LjVHL-27" style="edgeStyle=orthogonalEdgeStyle;shape=connector;rounded=0;orthogonalLoop=1;jettySize=auto;html=1;exitX=0.65;exitY=1;exitDx=0;exitDy=0;exitPerimeter=0;entryX=0.65;entryY=0;entryDx=0;entryDy=0;entryPerimeter=0;strokeColor=default;align=center;verticalAlign=middle;fontFamily=Helvetica;fontSize=11;fontColor=default;labelBackgroundColor=default;endArrow=openThin;endFill=0;" edge="1" parent="OAMfP3uRhHY4c8-LjVHL-136" source="OAMfP3uRhHY4c8-LjVHL-1" target="OAMfP3uRhHY4c8-LjVHL-9">
          <mxGeometry relative="1" as="geometry" />
        </mxCell>
        <mxCell id="OAMfP3uRhHY4c8-LjVHL-28" style="edgeStyle=orthogonalEdgeStyle;shape=connector;rounded=0;orthogonalLoop=1;jettySize=auto;html=1;exitX=0.71;exitY=1;exitDx=0;exitDy=0;exitPerimeter=0;entryX=0.71;entryY=0;entryDx=0;entryDy=0;entryPerimeter=0;strokeColor=default;align=center;verticalAlign=middle;fontFamily=Helvetica;fontSize=11;fontColor=default;labelBackgroundColor=default;endArrow=openThin;endFill=0;" edge="1" parent="OAMfP3uRhHY4c8-LjVHL-136" source="OAMfP3uRhHY4c8-LjVHL-1" target="OAMfP3uRhHY4c8-LjVHL-9">
          <mxGeometry relative="1" as="geometry" />
        </mxCell>
        <mxCell id="OAMfP3uRhHY4c8-LjVHL-31" style="edgeStyle=orthogonalEdgeStyle;shape=connector;rounded=0;orthogonalLoop=1;jettySize=auto;html=1;exitX=0.06;exitY=0;exitDx=0;exitDy=0;exitPerimeter=0;entryX=0.06;entryY=1;entryDx=0;entryDy=0;entryPerimeter=0;strokeColor=default;align=center;verticalAlign=middle;fontFamily=Helvetica;fontSize=11;fontColor=default;labelBackgroundColor=default;endArrow=openThin;endFill=0;" edge="1" parent="OAMfP3uRhHY4c8-LjVHL-136" source="OAMfP3uRhHY4c8-LjVHL-12" target="OAMfP3uRhHY4c8-LjVHL-8">
          <mxGeometry relative="1" as="geometry" />
        </mxCell>
        <mxCell id="OAMfP3uRhHY4c8-LjVHL-32" style="edgeStyle=orthogonalEdgeStyle;shape=connector;rounded=0;orthogonalLoop=1;jettySize=auto;html=1;exitX=0.12;exitY=0;exitDx=0;exitDy=0;exitPerimeter=0;entryX=0.12;entryY=1;entryDx=0;entryDy=0;entryPerimeter=0;strokeColor=default;align=center;verticalAlign=middle;fontFamily=Helvetica;fontSize=11;fontColor=default;labelBackgroundColor=default;endArrow=openThin;endFill=0;" edge="1" parent="OAMfP3uRhHY4c8-LjVHL-136" source="OAMfP3uRhHY4c8-LjVHL-12" target="OAMfP3uRhHY4c8-LjVHL-8">
          <mxGeometry relative="1" as="geometry" />
        </mxCell>
        <mxCell id="OAMfP3uRhHY4c8-LjVHL-33" style="edgeStyle=orthogonalEdgeStyle;shape=connector;rounded=0;orthogonalLoop=1;jettySize=auto;html=1;exitX=0.18;exitY=0;exitDx=0;exitDy=0;exitPerimeter=0;entryX=0.18;entryY=1;entryDx=0;entryDy=0;entryPerimeter=0;strokeColor=default;align=center;verticalAlign=middle;fontFamily=Helvetica;fontSize=11;fontColor=default;labelBackgroundColor=default;endArrow=openThin;endFill=0;" edge="1" parent="OAMfP3uRhHY4c8-LjVHL-136" source="OAMfP3uRhHY4c8-LjVHL-12" target="OAMfP3uRhHY4c8-LjVHL-8">
          <mxGeometry relative="1" as="geometry" />
        </mxCell>
        <mxCell id="OAMfP3uRhHY4c8-LjVHL-34" style="edgeStyle=orthogonalEdgeStyle;shape=connector;rounded=0;orthogonalLoop=1;jettySize=auto;html=1;exitX=0.24;exitY=0;exitDx=0;exitDy=0;exitPerimeter=0;entryX=0.24;entryY=1;entryDx=0;entryDy=0;entryPerimeter=0;strokeColor=default;align=center;verticalAlign=middle;fontFamily=Helvetica;fontSize=11;fontColor=default;labelBackgroundColor=default;endArrow=openThin;endFill=0;" edge="1" parent="OAMfP3uRhHY4c8-LjVHL-136" source="OAMfP3uRhHY4c8-LjVHL-12" target="OAMfP3uRhHY4c8-LjVHL-8">
          <mxGeometry relative="1" as="geometry" />
        </mxCell>
        <mxCell id="OAMfP3uRhHY4c8-LjVHL-36" style="edgeStyle=orthogonalEdgeStyle;shape=connector;rounded=0;orthogonalLoop=1;jettySize=auto;html=1;exitX=0.53;exitY=1;exitDx=0;exitDy=0;exitPerimeter=0;entryX=0.53;entryY=0;entryDx=0;entryDy=0;entryPerimeter=0;strokeColor=default;align=center;verticalAlign=middle;fontFamily=Helvetica;fontSize=11;fontColor=default;labelBackgroundColor=default;endArrow=openThin;endFill=0;" edge="1" parent="OAMfP3uRhHY4c8-LjVHL-136" source="OAMfP3uRhHY4c8-LjVHL-8" target="OAMfP3uRhHY4c8-LjVHL-12">
          <mxGeometry relative="1" as="geometry" />
        </mxCell>
        <mxCell id="OAMfP3uRhHY4c8-LjVHL-37" style="edgeStyle=orthogonalEdgeStyle;shape=connector;rounded=0;orthogonalLoop=1;jettySize=auto;html=1;exitX=0.59;exitY=1;exitDx=0;exitDy=0;exitPerimeter=0;entryX=0.59;entryY=0;entryDx=0;entryDy=0;entryPerimeter=0;strokeColor=default;align=center;verticalAlign=middle;fontFamily=Helvetica;fontSize=11;fontColor=default;labelBackgroundColor=default;endArrow=openThin;endFill=0;" edge="1" parent="OAMfP3uRhHY4c8-LjVHL-136" source="OAMfP3uRhHY4c8-LjVHL-8" target="OAMfP3uRhHY4c8-LjVHL-12">
          <mxGeometry relative="1" as="geometry" />
        </mxCell>
        <mxCell id="OAMfP3uRhHY4c8-LjVHL-38" style="edgeStyle=orthogonalEdgeStyle;shape=connector;rounded=0;orthogonalLoop=1;jettySize=auto;html=1;exitX=0.65;exitY=1;exitDx=0;exitDy=0;exitPerimeter=0;entryX=0.65;entryY=0;entryDx=0;entryDy=0;entryPerimeter=0;strokeColor=default;align=center;verticalAlign=middle;fontFamily=Helvetica;fontSize=11;fontColor=default;labelBackgroundColor=default;endArrow=openThin;endFill=0;" edge="1" parent="OAMfP3uRhHY4c8-LjVHL-136" source="OAMfP3uRhHY4c8-LjVHL-8" target="OAMfP3uRhHY4c8-LjVHL-12">
          <mxGeometry relative="1" as="geometry" />
        </mxCell>
        <mxCell id="OAMfP3uRhHY4c8-LjVHL-39" style="edgeStyle=orthogonalEdgeStyle;shape=connector;rounded=0;orthogonalLoop=1;jettySize=auto;html=1;exitX=0.71;exitY=1;exitDx=0;exitDy=0;exitPerimeter=0;entryX=0.71;entryY=0;entryDx=0;entryDy=0;entryPerimeter=0;strokeColor=default;align=center;verticalAlign=middle;fontFamily=Helvetica;fontSize=11;fontColor=default;labelBackgroundColor=default;endArrow=openThin;endFill=0;" edge="1" parent="OAMfP3uRhHY4c8-LjVHL-136" source="OAMfP3uRhHY4c8-LjVHL-8" target="OAMfP3uRhHY4c8-LjVHL-12">
          <mxGeometry relative="1" as="geometry" />
        </mxCell>
        <mxCell id="OAMfP3uRhHY4c8-LjVHL-43" style="edgeStyle=none;shape=connector;rounded=0;orthogonalLoop=1;jettySize=auto;html=1;exitX=0.29;exitY=0;exitDx=0;exitDy=0;exitPerimeter=0;entryX=0.29;entryY=1;entryDx=0;entryDy=0;entryPerimeter=0;strokeColor=default;align=center;verticalAlign=middle;fontFamily=Helvetica;fontSize=11;fontColor=default;labelBackgroundColor=default;endArrow=openThin;endFill=0;" edge="1" parent="OAMfP3uRhHY4c8-LjVHL-136" source="OAMfP3uRhHY4c8-LjVHL-9" target="OAMfP3uRhHY4c8-LjVHL-8">
          <mxGeometry relative="1" as="geometry" />
        </mxCell>
        <mxCell id="OAMfP3uRhHY4c8-LjVHL-44" style="edgeStyle=none;shape=connector;rounded=0;orthogonalLoop=1;jettySize=auto;html=1;exitX=0.35;exitY=0;exitDx=0;exitDy=0;exitPerimeter=0;entryX=0.35;entryY=1;entryDx=0;entryDy=0;entryPerimeter=0;strokeColor=default;align=center;verticalAlign=middle;fontFamily=Helvetica;fontSize=11;fontColor=default;labelBackgroundColor=default;endArrow=openThin;endFill=0;" edge="1" parent="OAMfP3uRhHY4c8-LjVHL-136" source="OAMfP3uRhHY4c8-LjVHL-9" target="OAMfP3uRhHY4c8-LjVHL-8">
          <mxGeometry relative="1" as="geometry" />
        </mxCell>
        <mxCell id="OAMfP3uRhHY4c8-LjVHL-45" style="edgeStyle=none;shape=connector;rounded=0;orthogonalLoop=1;jettySize=auto;html=1;exitX=0.41;exitY=0;exitDx=0;exitDy=0;exitPerimeter=0;entryX=0.41;entryY=1;entryDx=0;entryDy=0;entryPerimeter=0;strokeColor=default;align=center;verticalAlign=middle;fontFamily=Helvetica;fontSize=11;fontColor=default;labelBackgroundColor=default;endArrow=openThin;endFill=0;" edge="1" parent="OAMfP3uRhHY4c8-LjVHL-136" source="OAMfP3uRhHY4c8-LjVHL-9" target="OAMfP3uRhHY4c8-LjVHL-8">
          <mxGeometry relative="1" as="geometry" />
        </mxCell>
        <mxCell id="OAMfP3uRhHY4c8-LjVHL-46" style="edgeStyle=none;shape=connector;rounded=0;orthogonalLoop=1;jettySize=auto;html=1;exitX=0.47;exitY=0;exitDx=0;exitDy=0;exitPerimeter=0;entryX=0.47;entryY=1;entryDx=0;entryDy=0;entryPerimeter=0;strokeColor=default;align=center;verticalAlign=middle;fontFamily=Helvetica;fontSize=11;fontColor=default;labelBackgroundColor=default;endArrow=openThin;endFill=0;" edge="1" parent="OAMfP3uRhHY4c8-LjVHL-136" source="OAMfP3uRhHY4c8-LjVHL-9" target="OAMfP3uRhHY4c8-LjVHL-8">
          <mxGeometry relative="1" as="geometry" />
        </mxCell>
        <mxCell id="OAMfP3uRhHY4c8-LjVHL-47" style="edgeStyle=none;shape=connector;rounded=0;orthogonalLoop=1;jettySize=auto;html=1;exitX=0.76;exitY=1;exitDx=0;exitDy=0;exitPerimeter=0;entryX=0.76;entryY=0;entryDx=0;entryDy=0;entryPerimeter=0;strokeColor=default;align=center;verticalAlign=middle;fontFamily=Helvetica;fontSize=11;fontColor=default;labelBackgroundColor=default;endArrow=openThin;endFill=0;" edge="1" parent="OAMfP3uRhHY4c8-LjVHL-136" source="OAMfP3uRhHY4c8-LjVHL-8" target="OAMfP3uRhHY4c8-LjVHL-9">
          <mxGeometry relative="1" as="geometry" />
        </mxCell>
        <mxCell id="OAMfP3uRhHY4c8-LjVHL-48" style="edgeStyle=none;shape=connector;rounded=0;orthogonalLoop=1;jettySize=auto;html=1;exitX=0.82;exitY=1;exitDx=0;exitDy=0;exitPerimeter=0;entryX=0.82;entryY=0;entryDx=0;entryDy=0;entryPerimeter=0;strokeColor=default;align=center;verticalAlign=middle;fontFamily=Helvetica;fontSize=11;fontColor=default;labelBackgroundColor=default;endArrow=openThin;endFill=0;" edge="1" parent="OAMfP3uRhHY4c8-LjVHL-136" source="OAMfP3uRhHY4c8-LjVHL-8" target="OAMfP3uRhHY4c8-LjVHL-9">
          <mxGeometry relative="1" as="geometry" />
        </mxCell>
        <mxCell id="OAMfP3uRhHY4c8-LjVHL-49" style="edgeStyle=none;shape=connector;rounded=0;orthogonalLoop=1;jettySize=auto;html=1;exitX=0.88;exitY=1;exitDx=0;exitDy=0;exitPerimeter=0;entryX=0.88;entryY=0;entryDx=0;entryDy=0;entryPerimeter=0;strokeColor=default;align=center;verticalAlign=middle;fontFamily=Helvetica;fontSize=11;fontColor=default;labelBackgroundColor=default;endArrow=openThin;endFill=0;" edge="1" parent="OAMfP3uRhHY4c8-LjVHL-136" source="OAMfP3uRhHY4c8-LjVHL-8" target="OAMfP3uRhHY4c8-LjVHL-9">
          <mxGeometry relative="1" as="geometry" />
        </mxCell>
        <mxCell id="OAMfP3uRhHY4c8-LjVHL-50" style="edgeStyle=none;shape=connector;rounded=0;orthogonalLoop=1;jettySize=auto;html=1;exitX=0.94;exitY=1;exitDx=0;exitDy=0;exitPerimeter=0;entryX=0.94;entryY=0;entryDx=0;entryDy=0;entryPerimeter=0;strokeColor=default;align=center;verticalAlign=middle;fontFamily=Helvetica;fontSize=11;fontColor=default;labelBackgroundColor=default;endArrow=openThin;endFill=0;" edge="1" parent="OAMfP3uRhHY4c8-LjVHL-136" source="OAMfP3uRhHY4c8-LjVHL-8" target="OAMfP3uRhHY4c8-LjVHL-9">
          <mxGeometry relative="1" as="geometry" />
        </mxCell>
        <mxCell id="OAMfP3uRhHY4c8-LjVHL-51" style="edgeStyle=none;shape=connector;rounded=0;orthogonalLoop=1;jettySize=auto;html=1;exitX=0.29;exitY=0;exitDx=0;exitDy=0;exitPerimeter=0;entryX=0.29;entryY=1;entryDx=0;entryDy=0;entryPerimeter=0;strokeColor=default;align=center;verticalAlign=middle;fontFamily=Helvetica;fontSize=11;fontColor=default;labelBackgroundColor=default;endArrow=openThin;endFill=0;" edge="1" parent="OAMfP3uRhHY4c8-LjVHL-136" source="OAMfP3uRhHY4c8-LjVHL-12" target="OAMfP3uRhHY4c8-LjVHL-1">
          <mxGeometry relative="1" as="geometry" />
        </mxCell>
        <mxCell id="OAMfP3uRhHY4c8-LjVHL-52" style="edgeStyle=none;shape=connector;rounded=0;orthogonalLoop=1;jettySize=auto;html=1;exitX=0.35;exitY=0;exitDx=0;exitDy=0;exitPerimeter=0;entryX=0.35;entryY=1;entryDx=0;entryDy=0;entryPerimeter=0;strokeColor=default;align=center;verticalAlign=middle;fontFamily=Helvetica;fontSize=11;fontColor=default;labelBackgroundColor=default;endArrow=openThin;endFill=0;" edge="1" parent="OAMfP3uRhHY4c8-LjVHL-136" source="OAMfP3uRhHY4c8-LjVHL-12" target="OAMfP3uRhHY4c8-LjVHL-1">
          <mxGeometry relative="1" as="geometry" />
        </mxCell>
        <mxCell id="OAMfP3uRhHY4c8-LjVHL-53" style="edgeStyle=none;shape=connector;rounded=0;orthogonalLoop=1;jettySize=auto;html=1;exitX=0.41;exitY=0;exitDx=0;exitDy=0;exitPerimeter=0;entryX=0.41;entryY=1;entryDx=0;entryDy=0;entryPerimeter=0;strokeColor=default;align=center;verticalAlign=middle;fontFamily=Helvetica;fontSize=11;fontColor=default;labelBackgroundColor=default;endArrow=openThin;endFill=0;" edge="1" parent="OAMfP3uRhHY4c8-LjVHL-136" source="OAMfP3uRhHY4c8-LjVHL-12" target="OAMfP3uRhHY4c8-LjVHL-1">
          <mxGeometry relative="1" as="geometry" />
        </mxCell>
        <mxCell id="OAMfP3uRhHY4c8-LjVHL-54" style="edgeStyle=none;shape=connector;rounded=0;orthogonalLoop=1;jettySize=auto;html=1;exitX=0.47;exitY=0;exitDx=0;exitDy=0;exitPerimeter=0;entryX=0.47;entryY=1;entryDx=0;entryDy=0;entryPerimeter=0;strokeColor=default;align=center;verticalAlign=middle;fontFamily=Helvetica;fontSize=11;fontColor=default;labelBackgroundColor=default;endArrow=openThin;endFill=0;" edge="1" parent="OAMfP3uRhHY4c8-LjVHL-136" source="OAMfP3uRhHY4c8-LjVHL-12" target="OAMfP3uRhHY4c8-LjVHL-1">
          <mxGeometry relative="1" as="geometry" />
        </mxCell>
        <mxCell id="OAMfP3uRhHY4c8-LjVHL-55" style="edgeStyle=none;shape=connector;rounded=0;orthogonalLoop=1;jettySize=auto;html=1;exitX=0.76;exitY=1;exitDx=0;exitDy=0;exitPerimeter=0;entryX=0.76;entryY=0;entryDx=0;entryDy=0;entryPerimeter=0;strokeColor=default;align=center;verticalAlign=middle;fontFamily=Helvetica;fontSize=11;fontColor=default;labelBackgroundColor=default;endArrow=openThin;endFill=0;" edge="1" parent="OAMfP3uRhHY4c8-LjVHL-136" source="OAMfP3uRhHY4c8-LjVHL-1" target="OAMfP3uRhHY4c8-LjVHL-12">
          <mxGeometry relative="1" as="geometry" />
        </mxCell>
        <mxCell id="OAMfP3uRhHY4c8-LjVHL-56" style="edgeStyle=none;shape=connector;rounded=0;orthogonalLoop=1;jettySize=auto;html=1;exitX=0.82;exitY=1;exitDx=0;exitDy=0;exitPerimeter=0;entryX=0.82;entryY=0;entryDx=0;entryDy=0;entryPerimeter=0;strokeColor=default;align=center;verticalAlign=middle;fontFamily=Helvetica;fontSize=11;fontColor=default;labelBackgroundColor=default;endArrow=openThin;endFill=0;" edge="1" parent="OAMfP3uRhHY4c8-LjVHL-136" source="OAMfP3uRhHY4c8-LjVHL-1" target="OAMfP3uRhHY4c8-LjVHL-12">
          <mxGeometry relative="1" as="geometry" />
        </mxCell>
        <mxCell id="OAMfP3uRhHY4c8-LjVHL-57" style="edgeStyle=none;shape=connector;rounded=0;orthogonalLoop=1;jettySize=auto;html=1;exitX=0.88;exitY=1;exitDx=0;exitDy=0;exitPerimeter=0;entryX=0.88;entryY=0;entryDx=0;entryDy=0;entryPerimeter=0;strokeColor=default;align=center;verticalAlign=middle;fontFamily=Helvetica;fontSize=11;fontColor=default;labelBackgroundColor=default;endArrow=openThin;endFill=0;" edge="1" parent="OAMfP3uRhHY4c8-LjVHL-136" source="OAMfP3uRhHY4c8-LjVHL-1" target="OAMfP3uRhHY4c8-LjVHL-12">
          <mxGeometry relative="1" as="geometry" />
        </mxCell>
        <mxCell id="OAMfP3uRhHY4c8-LjVHL-58" style="edgeStyle=none;shape=connector;rounded=0;orthogonalLoop=1;jettySize=auto;html=1;exitX=0.94;exitY=1;exitDx=0;exitDy=0;exitPerimeter=0;entryX=0.94;entryY=0;entryDx=0;entryDy=0;entryPerimeter=0;strokeColor=default;align=center;verticalAlign=middle;fontFamily=Helvetica;fontSize=11;fontColor=default;labelBackgroundColor=default;endArrow=openThin;endFill=0;" edge="1" parent="OAMfP3uRhHY4c8-LjVHL-136" source="OAMfP3uRhHY4c8-LjVHL-1" target="OAMfP3uRhHY4c8-LjVHL-12">
          <mxGeometry relative="1" as="geometry" />
        </mxCell>
        <mxCell id="OAMfP3uRhHY4c8-LjVHL-137" value="" style="group;rotation=-90;" vertex="1" connectable="0" parent="1">
          <mxGeometry x="620" y="-150" width="410" height="370" as="geometry" />
        </mxCell>
        <mxCell id="OAMfP3uRhHY4c8-LjVHL-138" value="" style="rounded=0;whiteSpace=wrap;html=1;points=[[0,0,0,0,0],[0,0.25,0,0,0],[0,0.5,0,0,0],[0,0.75,0,0,0],[0,1,0,0,0],[0.06,0,0,0,0],[0.06,1,0,0,0],[0.12,0,0,0,0],[0.12,1,0,0,0],[0.18,0,0,0,0],[0.18,1,0,0,0],[0.24,0,0,0,0],[0.24,1,0,0,0],[0.29,0,0,0,0],[0.29,1,0,0,0],[0.35,0,0,0,0],[0.35,1,0,0,0],[0.41,0,0,0,0],[0.41,1,0,0,0],[0.47,0,0,0,0],[0.47,1,0,0,0],[0.53,0,0,0,0],[0.53,1,0,0,0],[0.59,0,0,0,0],[0.59,1,0,0,0],[0.65,0,0,0,0],[0.65,1,0,0,0],[0.71,0,0,0,0],[0.71,1,0,0,0],[0.76,0,0,0,0],[0.76,1,0,0,0],[0.82,0,0,0,0],[0.82,1,0,0,0],[0.88,0,0,0,0],[0.88,1,0,0,0],[0.94,0,0,0,0],[0.94,1,0,0,0],[1,0,0,0,0],[1,0.25,0,0,0],[1,0.5,0,0,0],[1,0.75,0,0,0],[1,1,0,0,0]];rotation=-90;" vertex="1" parent="OAMfP3uRhHY4c8-LjVHL-137">
          <mxGeometry x="-40" y="280" width="170" height="50" as="geometry" />
        </mxCell>
        <mxCell id="OAMfP3uRhHY4c8-LjVHL-139" value="" style="rounded=0;whiteSpace=wrap;html=1;points=[[0,0,0,0,0],[0,0.25,0,0,0],[0,0.5,0,0,0],[0,0.75,0,0,0],[0,1,0,0,0],[0.06,0,0,0,0],[0.06,1,0,0,0],[0.12,0,0,0,0],[0.12,1,0,0,0],[0.18,0,0,0,0],[0.18,1,0,0,0],[0.24,0,0,0,0],[0.24,1,0,0,0],[0.29,0,0,0,0],[0.29,1,0,0,0],[0.35,0,0,0,0],[0.35,1,0,0,0],[0.41,0,0,0,0],[0.41,1,0,0,0],[0.47,0,0,0,0],[0.47,1,0,0,0],[0.53,0,0,0,0],[0.53,1,0,0,0],[0.59,0,0,0,0],[0.59,1,0,0,0],[0.65,0,0,0,0],[0.65,1,0,0,0],[0.71,0,0,0,0],[0.71,1,0,0,0],[0.76,0,0,0,0],[0.76,1,0,0,0],[0.82,0,0,0,0],[0.82,1,0,0,0],[0.88,0,0,0,0],[0.88,1,0,0,0],[0.94,0,0,0,0],[0.94,1,0,0,0],[1,0,0,0,0],[1,0.25,0,0,0],[1,0.5,0,0,0],[1,0.75,0,0,0],[1,1,0,0,0]];rotation=-90;" vertex="1" parent="OAMfP3uRhHY4c8-LjVHL-137">
          <mxGeometry x="-40" y="40" width="170" height="50" as="geometry" />
        </mxCell>
        <mxCell id="OAMfP3uRhHY4c8-LjVHL-140" value="" style="rounded=0;whiteSpace=wrap;html=1;points=[[0,0,0,0,0],[0,0.25,0,0,0],[0,0.5,0,0,0],[0,0.75,0,0,0],[0,1,0,0,0],[0.06,0,0,0,0],[0.06,1,0,0,0],[0.12,0,0,0,0],[0.12,1,0,0,0],[0.18,0,0,0,0],[0.18,1,0,0,0],[0.24,0,0,0,0],[0.24,1,0,0,0],[0.29,0,0,0,0],[0.29,1,0,0,0],[0.35,0,0,0,0],[0.35,1,0,0,0],[0.41,0,0,0,0],[0.41,1,0,0,0],[0.47,0,0,0,0],[0.47,1,0,0,0],[0.53,0,0,0,0],[0.53,1,0,0,0],[0.59,0,0,0,0],[0.59,1,0,0,0],[0.65,0,0,0,0],[0.65,1,0,0,0],[0.71,0,0,0,0],[0.71,1,0,0,0],[0.76,0,0,0,0],[0.76,1,0,0,0],[0.82,0,0,0,0],[0.82,1,0,0,0],[0.88,0,0,0,0],[0.88,1,0,0,0],[0.94,0,0,0,0],[0.94,1,0,0,0],[1,0,0,0,0],[1,0.25,0,0,0],[1,0.5,0,0,0],[1,0.75,0,0,0],[1,1,0,0,0]];rotation=-90;" vertex="1" parent="OAMfP3uRhHY4c8-LjVHL-137">
          <mxGeometry x="120" y="280" width="170" height="50" as="geometry" />
        </mxCell>
        <mxCell id="OAMfP3uRhHY4c8-LjVHL-141" value="" style="rounded=0;whiteSpace=wrap;html=1;points=[[0,0,0,0,0],[0,0.25,0,0,0],[0,0.5,0,0,0],[0,0.75,0,0,0],[0,1,0,0,0],[0.06,0,0,0,0],[0.06,1,0,0,0],[0.12,0,0,0,0],[0.12,1,0,0,0],[0.18,0,0,0,0],[0.18,1,0,0,0],[0.24,0,0,0,0],[0.24,1,0,0,0],[0.29,0,0,0,0],[0.29,1,0,0,0],[0.35,0,0,0,0],[0.35,1,0,0,0],[0.41,0,0,0,0],[0.41,1,0,0,0],[0.47,0,0,0,0],[0.47,1,0,0,0],[0.53,0,0,0,0],[0.53,1,0,0,0],[0.59,0,0,0,0],[0.59,1,0,0,0],[0.65,0,0,0,0],[0.65,1,0,0,0],[0.71,0,0,0,0],[0.71,1,0,0,0],[0.76,0,0,0,0],[0.76,1,0,0,0],[0.82,0,0,0,0],[0.82,1,0,0,0],[0.88,0,0,0,0],[0.88,1,0,0,0],[0.94,0,0,0,0],[0.94,1,0,0,0],[1,0,0,0,0],[1,0.25,0,0,0],[1,0.5,0,0,0],[1,0.75,0,0,0],[1,1,0,0,0]];rotation=-90;" vertex="1" parent="OAMfP3uRhHY4c8-LjVHL-137">
          <mxGeometry x="120" y="40" width="170" height="50" as="geometry" />
        </mxCell>
        <mxCell id="OAMfP3uRhHY4c8-LjVHL-142" value="" style="rounded=0;whiteSpace=wrap;html=1;points=[[0,0,0,0,0],[0,0.25,0,0,0],[0,0.5,0,0,0],[0,0.75,0,0,0],[0,1,0,0,0],[0.06,0,0,0,0],[0.06,1,0,0,0],[0.12,0,0,0,0],[0.12,1,0,0,0],[0.18,0,0,0,0],[0.18,1,0,0,0],[0.24,0,0,0,0],[0.24,1,0,0,0],[0.29,0,0,0,0],[0.29,1,0,0,0],[0.35,0,0,0,0],[0.35,1,0,0,0],[0.41,0,0,0,0],[0.41,1,0,0,0],[0.47,0,0,0,0],[0.47,1,0,0,0],[0.53,0,0,0,0],[0.53,1,0,0,0],[0.59,0,0,0,0],[0.59,1,0,0,0],[0.65,0,0,0,0],[0.65,1,0,0,0],[0.71,0,0,0,0],[0.71,1,0,0,0],[0.76,0,0,0,0],[0.76,1,0,0,0],[0.82,0,0,0,0],[0.82,1,0,0,0],[0.88,0,0,0,0],[0.88,1,0,0,0],[0.94,0,0,0,0],[0.94,1,0,0,0],[1,0,0,0,0],[1,0.25,0,0,0],[1,0.5,0,0,0],[1,0.75,0,0,0],[1,1,0,0,0]];rotation=-90;" vertex="1" parent="OAMfP3uRhHY4c8-LjVHL-137">
          <mxGeometry x="280" y="280" width="170" height="50" as="geometry" />
        </mxCell>
        <mxCell id="OAMfP3uRhHY4c8-LjVHL-143" value="" style="rounded=0;whiteSpace=wrap;html=1;points=[[0,0,0,0,0],[0,0.25,0,0,0],[0,0.5,0,0,0],[0,0.75,0,0,0],[0,1,0,0,0],[0.06,0,0,0,0],[0.06,1,0,0,0],[0.12,0,0,0,0],[0.12,1,0,0,0],[0.18,0,0,0,0],[0.18,1,0,0,0],[0.24,0,0,0,0],[0.24,1,0,0,0],[0.29,0,0,0,0],[0.29,1,0,0,0],[0.35,0,0,0,0],[0.35,1,0,0,0],[0.41,0,0,0,0],[0.41,1,0,0,0],[0.47,0,0,0,0],[0.47,1,0,0,0],[0.53,0,0,0,0],[0.53,1,0,0,0],[0.59,0,0,0,0],[0.59,1,0,0,0],[0.65,0,0,0,0],[0.65,1,0,0,0],[0.71,0,0,0,0],[0.71,1,0,0,0],[0.76,0,0,0,0],[0.76,1,0,0,0],[0.82,0,0,0,0],[0.82,1,0,0,0],[0.88,0,0,0,0],[0.88,1,0,0,0],[0.94,0,0,0,0],[0.94,1,0,0,0],[1,0,0,0,0],[1,0.25,0,0,0],[1,0.5,0,0,0],[1,0.75,0,0,0],[1,1,0,0,0]];rotation=-90;" vertex="1" parent="OAMfP3uRhHY4c8-LjVHL-137">
          <mxGeometry x="280" y="40" width="170" height="50" as="geometry" />
        </mxCell>
        <mxCell id="OAMfP3uRhHY4c8-LjVHL-144" style="edgeStyle=orthogonalEdgeStyle;rounded=0;orthogonalLoop=1;jettySize=auto;html=1;exitX=0.06;exitY=0;exitDx=0;exitDy=0;exitPerimeter=0;entryX=0.06;entryY=1;entryDx=0;entryDy=0;entryPerimeter=0;endArrow=openThin;endFill=0;strokeColor=default;align=center;verticalAlign=middle;fontFamily=Helvetica;fontSize=11;fontColor=default;labelBackgroundColor=default;" edge="1" parent="OAMfP3uRhHY4c8-LjVHL-137" source="OAMfP3uRhHY4c8-LjVHL-140" target="OAMfP3uRhHY4c8-LjVHL-138">
          <mxGeometry relative="1" as="geometry" />
        </mxCell>
        <mxCell id="OAMfP3uRhHY4c8-LjVHL-145" style="edgeStyle=orthogonalEdgeStyle;rounded=0;orthogonalLoop=1;jettySize=auto;html=1;exitX=0.12;exitY=0;exitDx=0;exitDy=0;exitPerimeter=0;entryX=0.12;entryY=1;entryDx=0;entryDy=0;entryPerimeter=0;endArrow=openThin;endFill=0;strokeColor=default;align=center;verticalAlign=middle;fontFamily=Helvetica;fontSize=11;fontColor=default;labelBackgroundColor=default;" edge="1" parent="OAMfP3uRhHY4c8-LjVHL-137" source="OAMfP3uRhHY4c8-LjVHL-140" target="OAMfP3uRhHY4c8-LjVHL-138">
          <mxGeometry relative="1" as="geometry" />
        </mxCell>
        <mxCell id="OAMfP3uRhHY4c8-LjVHL-146" style="edgeStyle=orthogonalEdgeStyle;rounded=0;orthogonalLoop=1;jettySize=auto;html=1;exitX=0.18;exitY=0;exitDx=0;exitDy=0;exitPerimeter=0;entryX=0.18;entryY=1;entryDx=0;entryDy=0;entryPerimeter=0;endArrow=openThin;endFill=0;" edge="1" parent="OAMfP3uRhHY4c8-LjVHL-137" source="OAMfP3uRhHY4c8-LjVHL-140" target="OAMfP3uRhHY4c8-LjVHL-138">
          <mxGeometry relative="1" as="geometry" />
        </mxCell>
        <mxCell id="OAMfP3uRhHY4c8-LjVHL-147" style="edgeStyle=orthogonalEdgeStyle;rounded=0;orthogonalLoop=1;jettySize=auto;html=1;exitX=0.24;exitY=0;exitDx=0;exitDy=0;exitPerimeter=0;entryX=0.24;entryY=1;entryDx=0;entryDy=0;entryPerimeter=0;strokeColor=default;align=center;verticalAlign=middle;fontFamily=Helvetica;fontSize=11;fontColor=default;labelBackgroundColor=default;endArrow=openThin;endFill=0;" edge="1" parent="OAMfP3uRhHY4c8-LjVHL-137" source="OAMfP3uRhHY4c8-LjVHL-140" target="OAMfP3uRhHY4c8-LjVHL-138">
          <mxGeometry relative="1" as="geometry" />
        </mxCell>
        <mxCell id="OAMfP3uRhHY4c8-LjVHL-148" style="shape=connector;rounded=0;orthogonalLoop=1;jettySize=auto;html=1;exitX=0.53;exitY=1;exitDx=0;exitDy=0;exitPerimeter=0;entryX=0.53;entryY=0;entryDx=0;entryDy=0;entryPerimeter=0;strokeColor=default;align=center;verticalAlign=middle;fontFamily=Helvetica;fontSize=11;fontColor=default;labelBackgroundColor=default;endArrow=openThin;endFill=0;" edge="1" parent="OAMfP3uRhHY4c8-LjVHL-137" source="OAMfP3uRhHY4c8-LjVHL-138" target="OAMfP3uRhHY4c8-LjVHL-140">
          <mxGeometry relative="1" as="geometry" />
        </mxCell>
        <mxCell id="OAMfP3uRhHY4c8-LjVHL-149" style="edgeStyle=orthogonalEdgeStyle;shape=connector;rounded=0;orthogonalLoop=1;jettySize=auto;html=1;exitX=0.59;exitY=1;exitDx=0;exitDy=0;exitPerimeter=0;entryX=0.59;entryY=0;entryDx=0;entryDy=0;entryPerimeter=0;strokeColor=default;align=center;verticalAlign=middle;fontFamily=Helvetica;fontSize=11;fontColor=default;labelBackgroundColor=default;endArrow=openThin;endFill=0;" edge="1" parent="OAMfP3uRhHY4c8-LjVHL-137" source="OAMfP3uRhHY4c8-LjVHL-138" target="OAMfP3uRhHY4c8-LjVHL-140">
          <mxGeometry relative="1" as="geometry" />
        </mxCell>
        <mxCell id="OAMfP3uRhHY4c8-LjVHL-150" style="edgeStyle=orthogonalEdgeStyle;shape=connector;rounded=0;orthogonalLoop=1;jettySize=auto;html=1;exitX=0.65;exitY=1;exitDx=0;exitDy=0;exitPerimeter=0;entryX=0.65;entryY=0;entryDx=0;entryDy=0;entryPerimeter=0;strokeColor=default;align=center;verticalAlign=middle;fontFamily=Helvetica;fontSize=11;fontColor=default;labelBackgroundColor=default;endArrow=openThin;endFill=0;" edge="1" parent="OAMfP3uRhHY4c8-LjVHL-137" source="OAMfP3uRhHY4c8-LjVHL-138" target="OAMfP3uRhHY4c8-LjVHL-140">
          <mxGeometry relative="1" as="geometry" />
        </mxCell>
        <mxCell id="OAMfP3uRhHY4c8-LjVHL-151" style="edgeStyle=orthogonalEdgeStyle;shape=connector;rounded=0;orthogonalLoop=1;jettySize=auto;html=1;exitX=0.71;exitY=1;exitDx=0;exitDy=0;exitPerimeter=0;entryX=0.71;entryY=0;entryDx=0;entryDy=0;entryPerimeter=0;strokeColor=default;align=center;verticalAlign=middle;fontFamily=Helvetica;fontSize=11;fontColor=default;labelBackgroundColor=default;endArrow=openThin;endFill=0;" edge="1" parent="OAMfP3uRhHY4c8-LjVHL-137" source="OAMfP3uRhHY4c8-LjVHL-138" target="OAMfP3uRhHY4c8-LjVHL-140">
          <mxGeometry relative="1" as="geometry" />
        </mxCell>
        <mxCell id="OAMfP3uRhHY4c8-LjVHL-152" style="edgeStyle=orthogonalEdgeStyle;shape=connector;rounded=0;orthogonalLoop=1;jettySize=auto;html=1;exitX=0.06;exitY=0;exitDx=0;exitDy=0;exitPerimeter=0;entryX=0.06;entryY=1;entryDx=0;entryDy=0;entryPerimeter=0;strokeColor=default;align=center;verticalAlign=middle;fontFamily=Helvetica;fontSize=11;fontColor=default;labelBackgroundColor=default;endArrow=openThin;endFill=0;" edge="1" parent="OAMfP3uRhHY4c8-LjVHL-137" source="OAMfP3uRhHY4c8-LjVHL-141" target="OAMfP3uRhHY4c8-LjVHL-139">
          <mxGeometry relative="1" as="geometry" />
        </mxCell>
        <mxCell id="OAMfP3uRhHY4c8-LjVHL-153" style="edgeStyle=orthogonalEdgeStyle;shape=connector;rounded=0;orthogonalLoop=1;jettySize=auto;html=1;exitX=0.12;exitY=0;exitDx=0;exitDy=0;exitPerimeter=0;entryX=0.12;entryY=1;entryDx=0;entryDy=0;entryPerimeter=0;strokeColor=default;align=center;verticalAlign=middle;fontFamily=Helvetica;fontSize=11;fontColor=default;labelBackgroundColor=default;endArrow=openThin;endFill=0;" edge="1" parent="OAMfP3uRhHY4c8-LjVHL-137" source="OAMfP3uRhHY4c8-LjVHL-141" target="OAMfP3uRhHY4c8-LjVHL-139">
          <mxGeometry relative="1" as="geometry" />
        </mxCell>
        <mxCell id="OAMfP3uRhHY4c8-LjVHL-154" style="edgeStyle=orthogonalEdgeStyle;shape=connector;rounded=0;orthogonalLoop=1;jettySize=auto;html=1;exitX=0.18;exitY=0;exitDx=0;exitDy=0;exitPerimeter=0;entryX=0.18;entryY=1;entryDx=0;entryDy=0;entryPerimeter=0;strokeColor=default;align=center;verticalAlign=middle;fontFamily=Helvetica;fontSize=11;fontColor=default;labelBackgroundColor=default;endArrow=openThin;endFill=0;" edge="1" parent="OAMfP3uRhHY4c8-LjVHL-137" source="OAMfP3uRhHY4c8-LjVHL-141" target="OAMfP3uRhHY4c8-LjVHL-139">
          <mxGeometry relative="1" as="geometry" />
        </mxCell>
        <mxCell id="OAMfP3uRhHY4c8-LjVHL-155" style="edgeStyle=orthogonalEdgeStyle;shape=connector;rounded=0;orthogonalLoop=1;jettySize=auto;html=1;exitX=0.24;exitY=0;exitDx=0;exitDy=0;exitPerimeter=0;entryX=0.24;entryY=1;entryDx=0;entryDy=0;entryPerimeter=0;strokeColor=default;align=center;verticalAlign=middle;fontFamily=Helvetica;fontSize=11;fontColor=default;labelBackgroundColor=default;endArrow=openThin;endFill=0;" edge="1" parent="OAMfP3uRhHY4c8-LjVHL-137" source="OAMfP3uRhHY4c8-LjVHL-141" target="OAMfP3uRhHY4c8-LjVHL-139">
          <mxGeometry relative="1" as="geometry" />
        </mxCell>
        <mxCell id="OAMfP3uRhHY4c8-LjVHL-156" style="edgeStyle=orthogonalEdgeStyle;shape=connector;rounded=0;orthogonalLoop=1;jettySize=auto;html=1;exitX=0.53;exitY=1;exitDx=0;exitDy=0;exitPerimeter=0;entryX=0.53;entryY=0;entryDx=0;entryDy=0;entryPerimeter=0;strokeColor=default;align=center;verticalAlign=middle;fontFamily=Helvetica;fontSize=11;fontColor=default;labelBackgroundColor=default;endArrow=openThin;endFill=0;" edge="1" parent="OAMfP3uRhHY4c8-LjVHL-137" source="OAMfP3uRhHY4c8-LjVHL-139" target="OAMfP3uRhHY4c8-LjVHL-141">
          <mxGeometry relative="1" as="geometry" />
        </mxCell>
        <mxCell id="OAMfP3uRhHY4c8-LjVHL-157" style="edgeStyle=orthogonalEdgeStyle;shape=connector;rounded=0;orthogonalLoop=1;jettySize=auto;html=1;exitX=0.59;exitY=1;exitDx=0;exitDy=0;exitPerimeter=0;entryX=0.59;entryY=0;entryDx=0;entryDy=0;entryPerimeter=0;strokeColor=default;align=center;verticalAlign=middle;fontFamily=Helvetica;fontSize=11;fontColor=default;labelBackgroundColor=default;endArrow=openThin;endFill=0;" edge="1" parent="OAMfP3uRhHY4c8-LjVHL-137" source="OAMfP3uRhHY4c8-LjVHL-139" target="OAMfP3uRhHY4c8-LjVHL-141">
          <mxGeometry relative="1" as="geometry" />
        </mxCell>
        <mxCell id="OAMfP3uRhHY4c8-LjVHL-158" style="edgeStyle=orthogonalEdgeStyle;shape=connector;rounded=0;orthogonalLoop=1;jettySize=auto;html=1;exitX=0.65;exitY=1;exitDx=0;exitDy=0;exitPerimeter=0;entryX=0.65;entryY=0;entryDx=0;entryDy=0;entryPerimeter=0;strokeColor=default;align=center;verticalAlign=middle;fontFamily=Helvetica;fontSize=11;fontColor=default;labelBackgroundColor=default;endArrow=openThin;endFill=0;" edge="1" parent="OAMfP3uRhHY4c8-LjVHL-137" source="OAMfP3uRhHY4c8-LjVHL-139" target="OAMfP3uRhHY4c8-LjVHL-141">
          <mxGeometry relative="1" as="geometry" />
        </mxCell>
        <mxCell id="OAMfP3uRhHY4c8-LjVHL-159" style="edgeStyle=orthogonalEdgeStyle;shape=connector;rounded=0;orthogonalLoop=1;jettySize=auto;html=1;exitX=0.71;exitY=1;exitDx=0;exitDy=0;exitPerimeter=0;entryX=0.71;entryY=0;entryDx=0;entryDy=0;entryPerimeter=0;strokeColor=default;align=center;verticalAlign=middle;fontFamily=Helvetica;fontSize=11;fontColor=default;labelBackgroundColor=default;endArrow=openThin;endFill=0;" edge="1" parent="OAMfP3uRhHY4c8-LjVHL-137" source="OAMfP3uRhHY4c8-LjVHL-139" target="OAMfP3uRhHY4c8-LjVHL-141">
          <mxGeometry relative="1" as="geometry" />
        </mxCell>
        <mxCell id="OAMfP3uRhHY4c8-LjVHL-160" style="edgeStyle=none;shape=connector;rounded=0;orthogonalLoop=1;jettySize=auto;html=1;exitX=0.29;exitY=0;exitDx=0;exitDy=0;exitPerimeter=0;entryX=0.29;entryY=1;entryDx=0;entryDy=0;entryPerimeter=0;strokeColor=default;align=center;verticalAlign=middle;fontFamily=Helvetica;fontSize=11;fontColor=default;labelBackgroundColor=default;endArrow=openThin;endFill=0;" edge="1" parent="OAMfP3uRhHY4c8-LjVHL-137" source="OAMfP3uRhHY4c8-LjVHL-140" target="OAMfP3uRhHY4c8-LjVHL-139">
          <mxGeometry relative="1" as="geometry" />
        </mxCell>
        <mxCell id="OAMfP3uRhHY4c8-LjVHL-161" style="edgeStyle=none;shape=connector;rounded=0;orthogonalLoop=1;jettySize=auto;html=1;exitX=0.35;exitY=0;exitDx=0;exitDy=0;exitPerimeter=0;entryX=0.35;entryY=1;entryDx=0;entryDy=0;entryPerimeter=0;strokeColor=default;align=center;verticalAlign=middle;fontFamily=Helvetica;fontSize=11;fontColor=default;labelBackgroundColor=default;endArrow=openThin;endFill=0;" edge="1" parent="OAMfP3uRhHY4c8-LjVHL-137" source="OAMfP3uRhHY4c8-LjVHL-140" target="OAMfP3uRhHY4c8-LjVHL-139">
          <mxGeometry relative="1" as="geometry" />
        </mxCell>
        <mxCell id="OAMfP3uRhHY4c8-LjVHL-162" style="edgeStyle=none;shape=connector;rounded=0;orthogonalLoop=1;jettySize=auto;html=1;exitX=0.41;exitY=0;exitDx=0;exitDy=0;exitPerimeter=0;entryX=0.41;entryY=1;entryDx=0;entryDy=0;entryPerimeter=0;strokeColor=default;align=center;verticalAlign=middle;fontFamily=Helvetica;fontSize=11;fontColor=default;labelBackgroundColor=default;endArrow=openThin;endFill=0;" edge="1" parent="OAMfP3uRhHY4c8-LjVHL-137" source="OAMfP3uRhHY4c8-LjVHL-140" target="OAMfP3uRhHY4c8-LjVHL-139">
          <mxGeometry relative="1" as="geometry" />
        </mxCell>
        <mxCell id="OAMfP3uRhHY4c8-LjVHL-163" style="edgeStyle=none;shape=connector;rounded=0;orthogonalLoop=1;jettySize=auto;html=1;exitX=0.47;exitY=0;exitDx=0;exitDy=0;exitPerimeter=0;entryX=0.47;entryY=1;entryDx=0;entryDy=0;entryPerimeter=0;strokeColor=default;align=center;verticalAlign=middle;fontFamily=Helvetica;fontSize=11;fontColor=default;labelBackgroundColor=default;endArrow=openThin;endFill=0;" edge="1" parent="OAMfP3uRhHY4c8-LjVHL-137" source="OAMfP3uRhHY4c8-LjVHL-140" target="OAMfP3uRhHY4c8-LjVHL-139">
          <mxGeometry relative="1" as="geometry" />
        </mxCell>
        <mxCell id="OAMfP3uRhHY4c8-LjVHL-164" style="edgeStyle=none;shape=connector;rounded=0;orthogonalLoop=1;jettySize=auto;html=1;exitX=0.76;exitY=1;exitDx=0;exitDy=0;exitPerimeter=0;entryX=0.76;entryY=0;entryDx=0;entryDy=0;entryPerimeter=0;strokeColor=default;align=center;verticalAlign=middle;fontFamily=Helvetica;fontSize=11;fontColor=default;labelBackgroundColor=default;endArrow=openThin;endFill=0;" edge="1" parent="OAMfP3uRhHY4c8-LjVHL-137" source="OAMfP3uRhHY4c8-LjVHL-139" target="OAMfP3uRhHY4c8-LjVHL-140">
          <mxGeometry relative="1" as="geometry" />
        </mxCell>
        <mxCell id="OAMfP3uRhHY4c8-LjVHL-165" style="edgeStyle=none;shape=connector;rounded=0;orthogonalLoop=1;jettySize=auto;html=1;exitX=0.82;exitY=1;exitDx=0;exitDy=0;exitPerimeter=0;entryX=0.82;entryY=0;entryDx=0;entryDy=0;entryPerimeter=0;strokeColor=default;align=center;verticalAlign=middle;fontFamily=Helvetica;fontSize=11;fontColor=default;labelBackgroundColor=default;endArrow=openThin;endFill=0;" edge="1" parent="OAMfP3uRhHY4c8-LjVHL-137" source="OAMfP3uRhHY4c8-LjVHL-139" target="OAMfP3uRhHY4c8-LjVHL-140">
          <mxGeometry relative="1" as="geometry" />
        </mxCell>
        <mxCell id="OAMfP3uRhHY4c8-LjVHL-166" style="edgeStyle=none;shape=connector;rounded=0;orthogonalLoop=1;jettySize=auto;html=1;exitX=0.88;exitY=1;exitDx=0;exitDy=0;exitPerimeter=0;entryX=0.88;entryY=0;entryDx=0;entryDy=0;entryPerimeter=0;strokeColor=default;align=center;verticalAlign=middle;fontFamily=Helvetica;fontSize=11;fontColor=default;labelBackgroundColor=default;endArrow=openThin;endFill=0;" edge="1" parent="OAMfP3uRhHY4c8-LjVHL-137" source="OAMfP3uRhHY4c8-LjVHL-139" target="OAMfP3uRhHY4c8-LjVHL-140">
          <mxGeometry relative="1" as="geometry" />
        </mxCell>
        <mxCell id="OAMfP3uRhHY4c8-LjVHL-167" style="edgeStyle=none;shape=connector;rounded=0;orthogonalLoop=1;jettySize=auto;html=1;exitX=0.94;exitY=1;exitDx=0;exitDy=0;exitPerimeter=0;entryX=0.94;entryY=0;entryDx=0;entryDy=0;entryPerimeter=0;strokeColor=default;align=center;verticalAlign=middle;fontFamily=Helvetica;fontSize=11;fontColor=default;labelBackgroundColor=default;endArrow=openThin;endFill=0;" edge="1" parent="OAMfP3uRhHY4c8-LjVHL-137" source="OAMfP3uRhHY4c8-LjVHL-139" target="OAMfP3uRhHY4c8-LjVHL-140">
          <mxGeometry relative="1" as="geometry" />
        </mxCell>
        <mxCell id="OAMfP3uRhHY4c8-LjVHL-168" style="edgeStyle=none;shape=connector;rounded=0;orthogonalLoop=1;jettySize=auto;html=1;exitX=0.29;exitY=0;exitDx=0;exitDy=0;exitPerimeter=0;entryX=0.29;entryY=1;entryDx=0;entryDy=0;entryPerimeter=0;strokeColor=default;align=center;verticalAlign=middle;fontFamily=Helvetica;fontSize=11;fontColor=default;labelBackgroundColor=default;endArrow=openThin;endFill=0;" edge="1" parent="OAMfP3uRhHY4c8-LjVHL-137" source="OAMfP3uRhHY4c8-LjVHL-141" target="OAMfP3uRhHY4c8-LjVHL-138">
          <mxGeometry relative="1" as="geometry" />
        </mxCell>
        <mxCell id="OAMfP3uRhHY4c8-LjVHL-169" style="edgeStyle=none;shape=connector;rounded=0;orthogonalLoop=1;jettySize=auto;html=1;exitX=0.35;exitY=0;exitDx=0;exitDy=0;exitPerimeter=0;entryX=0.35;entryY=1;entryDx=0;entryDy=0;entryPerimeter=0;strokeColor=default;align=center;verticalAlign=middle;fontFamily=Helvetica;fontSize=11;fontColor=default;labelBackgroundColor=default;endArrow=openThin;endFill=0;" edge="1" parent="OAMfP3uRhHY4c8-LjVHL-137" source="OAMfP3uRhHY4c8-LjVHL-141" target="OAMfP3uRhHY4c8-LjVHL-138">
          <mxGeometry relative="1" as="geometry" />
        </mxCell>
        <mxCell id="OAMfP3uRhHY4c8-LjVHL-170" style="edgeStyle=none;shape=connector;rounded=0;orthogonalLoop=1;jettySize=auto;html=1;exitX=0.41;exitY=0;exitDx=0;exitDy=0;exitPerimeter=0;entryX=0.41;entryY=1;entryDx=0;entryDy=0;entryPerimeter=0;strokeColor=default;align=center;verticalAlign=middle;fontFamily=Helvetica;fontSize=11;fontColor=default;labelBackgroundColor=default;endArrow=openThin;endFill=0;" edge="1" parent="OAMfP3uRhHY4c8-LjVHL-137" source="OAMfP3uRhHY4c8-LjVHL-141" target="OAMfP3uRhHY4c8-LjVHL-138">
          <mxGeometry relative="1" as="geometry" />
        </mxCell>
        <mxCell id="OAMfP3uRhHY4c8-LjVHL-171" style="edgeStyle=none;shape=connector;rounded=0;orthogonalLoop=1;jettySize=auto;html=1;exitX=0.47;exitY=0;exitDx=0;exitDy=0;exitPerimeter=0;entryX=0.47;entryY=1;entryDx=0;entryDy=0;entryPerimeter=0;strokeColor=default;align=center;verticalAlign=middle;fontFamily=Helvetica;fontSize=11;fontColor=default;labelBackgroundColor=default;endArrow=openThin;endFill=0;" edge="1" parent="OAMfP3uRhHY4c8-LjVHL-137" source="OAMfP3uRhHY4c8-LjVHL-141" target="OAMfP3uRhHY4c8-LjVHL-138">
          <mxGeometry relative="1" as="geometry" />
        </mxCell>
        <mxCell id="OAMfP3uRhHY4c8-LjVHL-172" style="edgeStyle=none;shape=connector;rounded=0;orthogonalLoop=1;jettySize=auto;html=1;exitX=0.76;exitY=1;exitDx=0;exitDy=0;exitPerimeter=0;entryX=0.76;entryY=0;entryDx=0;entryDy=0;entryPerimeter=0;strokeColor=default;align=center;verticalAlign=middle;fontFamily=Helvetica;fontSize=11;fontColor=default;labelBackgroundColor=default;endArrow=openThin;endFill=0;" edge="1" parent="OAMfP3uRhHY4c8-LjVHL-137" source="OAMfP3uRhHY4c8-LjVHL-138" target="OAMfP3uRhHY4c8-LjVHL-141">
          <mxGeometry relative="1" as="geometry" />
        </mxCell>
        <mxCell id="OAMfP3uRhHY4c8-LjVHL-173" style="edgeStyle=none;shape=connector;rounded=0;orthogonalLoop=1;jettySize=auto;html=1;exitX=0.82;exitY=1;exitDx=0;exitDy=0;exitPerimeter=0;entryX=0.82;entryY=0;entryDx=0;entryDy=0;entryPerimeter=0;strokeColor=default;align=center;verticalAlign=middle;fontFamily=Helvetica;fontSize=11;fontColor=default;labelBackgroundColor=default;endArrow=openThin;endFill=0;" edge="1" parent="OAMfP3uRhHY4c8-LjVHL-137" source="OAMfP3uRhHY4c8-LjVHL-138" target="OAMfP3uRhHY4c8-LjVHL-141">
          <mxGeometry relative="1" as="geometry" />
        </mxCell>
        <mxCell id="OAMfP3uRhHY4c8-LjVHL-174" style="edgeStyle=none;shape=connector;rounded=0;orthogonalLoop=1;jettySize=auto;html=1;exitX=0.88;exitY=1;exitDx=0;exitDy=0;exitPerimeter=0;entryX=0.88;entryY=0;entryDx=0;entryDy=0;entryPerimeter=0;strokeColor=default;align=center;verticalAlign=middle;fontFamily=Helvetica;fontSize=11;fontColor=default;labelBackgroundColor=default;endArrow=openThin;endFill=0;" edge="1" parent="OAMfP3uRhHY4c8-LjVHL-137" source="OAMfP3uRhHY4c8-LjVHL-138" target="OAMfP3uRhHY4c8-LjVHL-141">
          <mxGeometry relative="1" as="geometry" />
        </mxCell>
        <mxCell id="OAMfP3uRhHY4c8-LjVHL-175" style="edgeStyle=none;shape=connector;rounded=0;orthogonalLoop=1;jettySize=auto;html=1;exitX=0.94;exitY=1;exitDx=0;exitDy=0;exitPerimeter=0;entryX=0.94;entryY=0;entryDx=0;entryDy=0;entryPerimeter=0;strokeColor=default;align=center;verticalAlign=middle;fontFamily=Helvetica;fontSize=11;fontColor=default;labelBackgroundColor=default;endArrow=openThin;endFill=0;" edge="1" parent="OAMfP3uRhHY4c8-LjVHL-137" source="OAMfP3uRhHY4c8-LjVHL-138" target="OAMfP3uRhHY4c8-LjVHL-141">
          <mxGeometry relative="1" as="geometry" />
        </mxCell>
      </root>
    </mxGraphModel>
  </diagram>
</mxfile>
